<svg xmlns="http://www.w3.org/2000/svg" viewBox="0 0 320 80" fill="none">
  <!-- Shield/crest icon -->
  <path d="M12 8 L12 8 C12 8 28 8 28 8 L36 8 L36 52 C36 62 24 70 24 70 C24 70 12 62 12 52 Z" fill="white" opacity="0.95"/>
  <path d="M16 14 L32 14 L32 50 C32 58 24 65 24 65 C24 65 16 58 16 50 Z" fill="url(#shieldGrad)" opacity="0.85"/>
  <line x1="24" y1="14" x2="24" y2="65" stroke="white" stroke-width="2" opacity="0.4"/>
  <line x1="16" y1="38" x2="32" y2="38" stroke="white" stroke-width="2" opacity="0.4"/>
  <defs>
    <linearGradient id="shieldGrad" x1="0" y1="0" x2="1" y2="1">
      <stop offset="0%" stop-color="#1d6ef5"/>
      <stop offset="100%" stop-color="#0a3fa8"/>
    </linearGradient>
  </defs>
  <!-- HALIFAX wordmark -->
  <text x="48" y="52" font-family="Georgia, serif" font-size="36" font-weight="700" fill="white" letter-spacing="2" opacity="0.95">HALIFAX</text>
  <!-- Private Banking subtitle -->
  <text x="49" y="67" font-family="Arial, sans-serif" font-size="11" font-weight="400" fill="white" letter-spacing="4" opacity="0.55">PRIVATE BANKING</text>
</svg>
